<?xml version="1.0" encoding="UTF-8"?>
<svg id="Layer_2" data-name="Layer 2" xmlns="http://www.w3.org/2000/svg" viewBox="0 0 443.42 81.11">
  <defs>
    <style>
      <!-- .cls-1 {
        fill: #000;
      } -->
      #Layer_2 {
        width: 30%;
      }
    </style>
  </defs>
  <g id="Logo">
    <path class="cls-1" d="m0,80V0h79.57v80H0ZM16.38,12.45v57.4l49.89-29.34L16.38,12.45Z"/>
    <g>
      <path class="cls-1" d="m196.61,80h-30.74V.19h30.93c22.91,0,36.66,18.14,36.66,41.24s-12.22,38.57-36.85,38.57Zm-1.34-66.25h-12.6v53.84h13.56c17.95,0,20.62-15.27,20.43-26.92,0-9.17-4.39-26.92-21.38-26.92Z"/>
      <path class="cls-1" d="m150.65,80l-6.11-17.76h-29.4l-5.35,17.76h-16.04L120.68,0h16.23l30.17,80h-16.42Zm-11.71-33.99l-10.06-29.21-8.82,29.21-.72,4.96h20.33l-.72-4.96Z"/>
      <rect class="cls-1" x="237.81" y="0" width="16.99" height="80"/>
    </g>
    <g>
      <path class="cls-1" d="m282.31,75.06c-4.11-3.89-6.16-9.08-6.16-15.6,0-.81.07-2.03.22-3.66l3.66-29.3c.59-5.03,2.2-9.44,4.83-13.21,2.62-3.77,6.01-6.7,10.16-8.77,4.14-2.07,8.73-3.11,13.76-3.11,4.66,0,8.73.87,12.21,2.61,3.48,1.74,6.16,4.16,8.05,7.27s2.83,6.66,2.83,10.66c0,.67-.07,1.74-.22,3.22l-.33,2.33c0,.37-.15.69-.44.94-.3.26-.63.39-1,.39h-15.21c-.37,0-.68-.13-.94-.39-.26-.26-.35-.57-.28-.94l.33-2.11.11-1.22c0-2.07-.61-3.75-1.83-5.05-1.22-1.29-2.94-1.94-5.16-1.94-2.37,0-4.37.83-5.99,2.5-1.63,1.67-2.63,3.83-3,6.49l-3.66,29.97c-.07.3-.11.78-.11,1.44,0,2.29.68,4.13,2.05,5.49,1.37,1.37,3.13,2.05,5.27,2.05,2.29,0,4.24-.72,5.83-2.16,1.59-1.44,2.53-3.39,2.83-5.83l.55-5.11c.15-.37,0-.55-.44-.55h-6.88c-.37,0-.67-.13-.89-.39-.22-.26-.3-.57-.22-.94l1.44-11.99c.07-.37.24-.68.5-.94.26-.26.57-.39.94-.39h23.75c.81,0,1.22.44,1.22,1.33l-2.22,17.87c-.59,4.96-2.2,9.32-4.83,13.1-2.63,3.77-6.01,6.68-10.16,8.71-4.15,2.04-8.77,3.05-13.88,3.05-7.03,0-12.6-1.94-16.71-5.83Z"/>
      <path class="cls-1" d="m337.97,75.11c-4.07-3.85-6.1-9.06-6.1-15.65,0-1.7.07-3,.22-3.88l3.55-29.08c.59-5.03,2.2-9.44,4.83-13.21,2.62-3.77,5.99-6.7,10.1-8.77,4.11-2.07,8.71-3.11,13.82-3.11,7.1,0,12.71,1.85,16.82,5.55,4.11,3.7,6.16,8.73,6.16,15.1,0,.74-.08,2-.22,3.77v.44c-.07.37-.26.7-.55,1s-.63.44-1,.44l-15.32.67c-.81,0-1.18-.41-1.11-1.22l.11-1.55c.07-.37.11-.85.11-1.44,0-2.15-.61-3.85-1.83-5.11-1.22-1.26-2.91-1.89-5.05-1.89-2.37,0-4.37.78-5.99,2.33-1.63,1.55-2.59,3.59-2.89,6.1l-3.89,31.08-.11,1.22c0,2.15.63,3.88,1.89,5.22,1.26,1.33,2.96,2,5.11,2,2.37,0,4.37-.78,5.99-2.33,1.63-1.55,2.59-3.59,2.89-6.1l.22-1.55c.07-.81.55-1.22,1.44-1.22l15.21.67c.37,0,.67.15.89.44.22.3.29.63.22,1v.22c-.59,4.88-2.2,9.2-4.83,12.93-2.63,3.74-6.01,6.62-10.16,8.66-4.15,2.04-8.77,3.05-13.88,3.05-7.03,0-12.58-1.92-16.65-5.77Z"/>
      <path class="cls-1" d="m393.41,75.11c-4.18-4-6.27-9.32-6.27-15.98,0-.89.07-2.22.22-4l3.44-27.97c.59-5.11,2.22-9.6,4.88-13.49,2.66-3.89,6.1-6.9,10.32-9.05,4.22-2.15,8.92-3.22,14.1-3.22,7.18,0,12.86,1.98,17.04,5.94,4.18,3.96,6.27,9.27,6.27,15.93,0,.82-.07,2.11-.22,3.89l-3.44,27.97c-.67,5.18-2.33,9.73-5,13.65-2.66,3.92-6.1,6.96-10.32,9.1-4.22,2.15-8.92,3.22-14.1,3.22-7.1,0-12.75-2-16.93-5.99Zm25.25-12.49c1.78-1.74,2.81-4.01,3.11-6.83l3.55-29.08c.07-.37.11-.89.11-1.55,0-2.37-.65-4.29-1.94-5.77-1.3-1.48-3.05-2.22-5.27-2.22-2.52,0-4.62.87-6.33,2.61-1.7,1.74-2.74,4.05-3.11,6.94l-3.66,29.08c-.07.37-.11.93-.11,1.67,0,2.37.67,4.26,2,5.66,1.33,1.41,3.11,2.11,5.33,2.11,2.44,0,4.55-.87,6.33-2.61Z"/>
    </g>
  </g>
</svg>
