<?xml version="1.0" encoding="utf-8"?>
<!-- Svg Vector Icons : http://www.onlinewebfonts.com/icon -->
<!DOCTYPE svg PUBLIC "-//W3C//DTD SVG 1.1//EN" "http://www.w3.org/Graphics/SVG/1.1/DTD/svg11.dtd">
<svg version="1.1" xmlns="http://www.w3.org/2000/svg" xmlns:xlink="http://www.w3.org/1999/xlink" x="0px" y="0px" viewBox="0 0 1000 1000" enable-background="new 0 0 1000 1000" xml:space="preserve">
<g><path d="M500.6,10c67.2,0,130.5,12.9,189.9,38.8C749.9,74.6,801.8,109.7,846,154c44.3,44.3,79.4,96.2,105.2,155.6C977.1,369,990,432.3,990,499.4c0,67.9-12.9,131.6-38.8,191C925.4,749.9,890.3,801.8,846,846c-44.3,44.3-96.2,79.4-155.6,105.2C631,977.1,567.7,990,500.6,990c-67.9,0-131.6-12.9-191-38.8C250.1,925.4,198.2,890.3,154,846c-44.3-44.3-79.4-96.2-105.2-155.6C22.9,631,10,567.4,10,499.4c0-67.2,12.9-130.5,38.8-189.9C74.6,250.1,109.7,198.2,154,154c44.3-44.3,96.2-79.4,155.6-105.2C369,22.9,432.6,10,500.6,10L500.6,10z M500.6,922.5c58.3,0,113.1-11.1,164.4-33.2c51.3-22.1,96.2-52.4,134.5-90.8c38.4-38.4,68.7-83.2,90.8-134.5c22.1-51.3,33.2-106.1,33.2-164.4c0-58.3-11.1-113.1-33.2-164.4c-22.1-51.3-52.4-96.2-90.8-134.5c-38.4-38.4-83.2-68.7-134.5-90.8c-51.3-22.1-106.1-33.2-164.4-33.2c-59.1,0-114.2,11.1-165.5,33.2c-51.3,22.1-96.2,52.4-134.5,90.8c-38.4,38.4-68.7,83.2-90.8,134.5c-22.1,51.3-33.2,106.1-33.2,164.4c0,58.3,11.1,113.1,33.2,164.4c22.1,51.3,52.4,96.2,90.8,134.5c38.4,38.4,83.2,68.7,134.5,90.8C386.3,911.4,441.5,922.5,500.6,922.5L500.6,922.5z"/><path d="M237.6,430.2c18.5,0,32.7,5.9,42.7,17.6c10,11.7,15,24.4,15,37.8v8.2c0,17-4.4,31.3-13.1,43.1c-8.7,11.7-23.4,17.6-43.8,17.6h-5.2c-19,0-34.1-5.2-45.3-15.7c-11.2-10.5-16.9-25-16.9-43.5v-10.5c0-6.5,1.4-13,4.1-19.5c2.7-6.5,6.6-12.4,11.6-17.6c5-5.2,11.2-9.5,18.7-12.7c7.5-3.2,15.7-4.9,24.7-4.9H237.6L237.6,430.2z M507.3,430.2c18.5,0,32.7,5.9,42.7,17.6c10,11.7,15,24.4,15,37.8v8.2c0,17-4.4,31.3-13.1,43.1c-8.7,11.7-23.4,17.6-43.8,17.6h-5.2c-19,0-34.1-5.2-45.3-15.7c-11.2-10.5-16.9-25-16.9-43.5v-10.5c0-6.5,1.4-13,4.1-19.5s6.6-12.4,11.6-17.6c5-5.2,11.2-9.5,18.7-12.7c7.5-3.2,15.7-4.9,24.7-4.9H507.3L507.3,430.2z M777,430.2c18.5,0,32.7,5.9,42.7,17.6c10,11.7,15,24.4,15,37.8v8.2c0,17-4.4,31.3-13.1,43.1c-8.7,11.7-23.4,17.6-43.8,17.6h-5.3c-19,0-34.1-5.2-45.3-15.7c-11.2-10.5-16.9-25-16.9-43.5v-10.5c0-6.5,1.4-13,4.1-19.5c2.7-6.5,6.6-12.4,11.6-17.6c5-5.2,11.2-9.5,18.7-12.7c7.5-3.2,15.7-4.9,24.7-4.9H777L777,430.2z"/></g>
</svg>
